<svg enable-background="new 0 0 550 250.5" viewBox="0 0 550 250.5" xmlns="http://www.w3.org/2000/svg"><ellipse cx="274.3" cy="190.4" fill="#9b8ec1" rx="206.2" ry="40.1"/><path d="m199.9 129.7c5.5 10.5 8.9 23.7 8.9 36.9 0 30.1-17.2 40.5-38.5 40.5s-38.5-10.4-38.5-40.5 17.2-59.6 38.5-59.6c8 0 15.4 4.1 21.5 10.9 3.1 3.4 5.8 7.4 8.1 11.8" fill="#fcf2c3"/><path d="m136.8 140c-2.8 8.3-4.5 17.4-4.5 26.6 0 7.6 1.1 13.9 3.1 19.1 23.5 6.1 47 6.2 70.6.7 2.2-5.4 3.4-11.9 3.4-19.9 0-9-1.5-17.9-4.3-26-22.8 3.9-45.5 3.7-68.3-.5z" fill="#00aa51"/><path d="m208.8 167c0 1.5 0 2.9-.1 4.3-1.9-2.5-4.8-3.8-7.7-3.8s-5.8 1.3-7.7 3.8-4.8 3.8-7.7 3.8-5.8-1.3-7.7-3.8-4.8-3.8-7.7-3.8-5.8 1.3-7.7 3.8-4.8 3.8-7.7 3.8-5.8-1.3-7.7-3.8c-1-1.3-2.3-2.3-3.8-3-3.8-1.7-8.6-.8-11.4 2.7-.1-1.3-.1-2.6-.1-4 0-2.7.1-5.4.4-8.1 3.1-3.4 7.9-4 11.7-2 1.2.6 2.3 1.5 3.1 2.6 1.9 2.5 4.8 3.8 7.7 3.8s5.8-1.3 7.7-3.8 4.8-3.8 7.7-3.8 5.8 1.3 7.7 3.8 4.8 3.8 7.7 3.8 5.8-1.3 7.7-3.8 4.8-3.8 7.7-3.8c2.8 0 5.5 1.2 7.5 3.5.3 2.6.4 5.2.4 7.8z" fill="#fcc447"/><path d="m143.3 166.6c0-27.4 14.2-54.2 32.7-58.9-1.9-.5-3.8-.7-5.8-.7-21.3 0-38.5 29.4-38.5 59.6s17.2 40.5 38.5 40.5c2 0 3.9-.1 5.8-.3-18.4-1.8-32.7-12.8-32.7-40.2z" fill="#ff5f5f" opacity=".3"/><ellipse cx="186.1" cy="154.8" fill="#fc675b" rx="4" ry="4"/><ellipse cx="154.6" cy="154.8" fill="#fc675b" rx="4" ry="4"/><ellipse cx="139.6" cy="176" fill="#e8564f" rx="4" ry="4"/><ellipse cx="170.3" cy="176" fill="#fc675b" rx="4" ry="4"/><ellipse cx="201" cy="176" fill="#fc675b" rx="4" ry="4"/><g stroke-miterlimit="10" stroke-width="3.1611"><path d="m199.9 129.7c5.5 10.5 8.9 23.7 8.9 36.9 0 30.1-17.2 40.5-38.5 40.5s-38.5-10.4-38.5-40.5 17.2-59.6 38.5-59.6c8 0 15.4 4.1 21.5 10.9 3.1 3.4 5.8 7.4 8.1 11.8" fill="none" stroke="#51347a"/><path d="m136.3 140c-2.8 8.3-4.5 17.4-4.5 26.6 0 7.6 1.1 13.9 3.1 19.1 23.5 6.1 47 6.2 70.6.7 2.2-5.4 3.4-11.9 3.4-19.9 0-9-1.5-17.9-4.3-26-22.8 3.9-45.6 3.7-68.3-.5z" fill="none" stroke="#51347a"/><path d="m176.6 115.4c3.6 1.5 7 4.1 10 7.4 2.5 2.8 4.8 6.1 6.7 9.8" fill="none" stroke="#fff" stroke-linecap="round" stroke-linejoin="round"/><path d="m366.2 44.7c-2.7 0-5.1 2.1-6.1 5.2-1-3.1-3.4-5.2-6.1-5.2s-5.1 2.1-6.1 5.2c-1-3.1-3.4-5.2-6.1-5.2s-5.1 2.1-6.1 5.2c-1-3.1-3.4-5.2-6.1-5.2s-5.1 2.1-6.1 5.2c-1-3-3.4-5.2-6.1-5.2s-5.1 2.1-6.1 5.2c-1-3.1-3.4-5.2-6.1-5.2s-5.1 2.1-6.1 5.2c-1-3.1-3.4-5.2-6.1-5.2s-5.1 2.1-6.1 5.2c-1-3.1-3.4-5.2-6.1-5.2s-5.1 2.1-6.1 5.2c-1-3.1-3.4-5.2-6.1-5.2s-5.1 2.1-6.1 5.2c-1-3.1-3.4-5.2-6.1-5.2-3.7 0-6.6 3.8-6.6 8.6v107.9c0 4.7 3 8.6 6.6 8.6 2.7 0 5.1-2.1 6.1-5.2 1 3.1 3.4 5.2 6.1 5.2s5.1-2.1 6.1-5.2c1 3.1 3.4 5.2 6.1 5.2s5.1-2.1 6.1-5.2c1 3.1 3.4 5.2 6.1 5.2s5.1-2.1 6.1-5.2c1 3.1 3.4 5.2 6.1 5.2s5.1-2.1 6.1-5.2c1 3.1 3.4 5.2 6.1 5.2s5.1-2.1 6.1-5.2c1 3 3.4 5.2 6.1 5.2s5.1-2.1 6.1-5.2c1 3.1 3.4 5.2 6.1 5.2s5.1-2.1 6.1-5.2c1 3.1 3.4 5.2 6.1 5.2s5.1-2.1 6.1-5.2c1 3.1 3.4 5.2 6.1 5.2 3.7 0 6.6-3.8 6.6-8.6v-108c0-4.7-3-8.5-6.6-8.5z" fill="#00aa51" stroke="#51347a" stroke-linecap="round" stroke-linejoin="round"/><path d="m274.6 61.6v100" fill="none" stroke="#048e42" stroke-linecap="round" stroke-linejoin="round"/><path d="m285.2 61.6v100" fill="none" stroke="#048e42" stroke-linecap="round" stroke-linejoin="round"/><path d="m295.8 61.6v100" fill="none" stroke="#048e42" stroke-linecap="round" stroke-linejoin="round"/><path d="m306.4 61.6v100" fill="none" stroke="#048e42" stroke-linecap="round" stroke-linejoin="round"/><path d="m316.9 61.6v100" fill="none" stroke="#048e42" stroke-linecap="round" stroke-linejoin="round"/><path d="m327.5 61.6v100" fill="none" stroke="#048e42" stroke-linecap="round" stroke-linejoin="round"/><path d="m338.1 61.6v100" fill="none" stroke="#048e42" stroke-linecap="round" stroke-linejoin="round"/><path d="m348.7 61.6v100" fill="none" stroke="#048e42" stroke-linecap="round" stroke-linejoin="round"/><path d="m359.3 61.6v100" fill="none" stroke="#048e42" stroke-linecap="round" stroke-linejoin="round"/><path d="m264 61.6v100" fill="none" stroke="#048e42" stroke-linecap="round" stroke-linejoin="round"/><path d="m373.2 136c0 2.6-.1 5.1-.2 7.6-3.1-4.5-7.7-6.7-12.3-6.7s-9.2 2.2-12.3 6.7-7.7 6.7-12.3 6.7-9.2-2.2-12.3-6.7-7.7-6.7-12.3-6.7-9.2 2.2-12.3 6.7-7.7 6.7-12.3 6.7-9.2-2.2-12.3-6.7c-1.7-2.4-3.7-4.1-6-5.2-6.1-3-13.7-1.4-18.3 4.8-.1-2.3-.2-4.7-.2-7.1 0-4.8.2-9.7.7-14.5 4.9-6 12.7-7.2 18.8-3.6 1.9 1.1 3.6 2.7 5 4.7 3.1 4.5 7.7 6.7 12.3 6.7s9.2-2.2 12.3-6.7 7.7-6.7 12.3-6.7 9.2 2.2 12.3 6.7 7.7 6.7 12.3 6.7 9.2-2.2 12.3-6.7 7.7-6.7 12.3-6.7c4.4 0 8.8 2.1 11.9 6.2.4 4.5.6 9.1.6 13.8z" fill="#fc675b" stroke="#51347a"/></g><path d="m272.9 204.9c-15.4 0-28-13.7-28-30.4v-10.4c0-1 .5-1.8.8-2.3h127.7c1.7 0 3.7.4 3.7 2.3v10.4c0 16.8-12.5 30.4-28 30.4z" fill="#d2e563"/><path d="m373.5 163.4c.2 0 2.2 0 2.2.7v10.4c0 15.9-11.8 28.9-26.4 28.9h-76.4c-14.6 0-26.4-12.9-26.4-28.9v-10.4c0-.2.1-.5.2-.7zm0-3.2h-128.4c-.2 0-1.8 1.7-1.8 3.9v10.4c0 17.7 13.2 32 29.6 32h76.4c16.3 0 29.6-14.3 29.6-32v-10.4c-.1-2.2-1.7-3.9-5.4-3.9z" fill="#51347a"/><path d="m274.3 158.3c0 13.3-8.6 31.6-19 41.6-4.6 4.4-9.6 7.2-14.3 7.2-3 0-6-.5-8.6-1.3-3.5-1.1-7.3-1.1-10.8 0-2.6.8-5.6 1.3-8.6 1.3-5 0-10.2-3.1-15-7.9-10.1-10.1-18.4-28-18.4-40.9 0-19.1 11.4-30.7 22.2-33.5 5.2-1.3 11.1-.5 16 .8 5 1.3 10.2 1.5 15.2.7 1-.2 2-.4 3-.7 4.8-1.3 10.8-2.1 16-.8 10.8 2.8 22.3 14.4 22.3 33.5z" fill="#f94848"/><path d="m255.2 199.9c-12.8 2.3-22.6 1.6-30.1-.2-12.1-2.9-21.1-13.2-22.6-25.5-3.8-31 16.5-40 16.5-40 3.2 1.4 6.6 1.7 9 1.6v-9c-3.4.1-6.9-.3-10.3-1.1-4.8-1.3-10.8-2.1-16-.8-10.8 2.8-22.2 14.3-22.2 33.5 0 19.1 18 48.8 33.4 48.8 3 0 6-.5 8.6-1.3 3.5-1.1 7.3-1.1 10.8 0 2.6.8 5.6 1.3 8.6 1.3 4.7-.1 9.7-2.9 14.3-7.3z" fill="#ed3737"/><path d="m215.6 133.3c8.2 5.3 16.1 5 23.5 0" style="fill:none;stroke:#51347a;stroke-width:3.1611;stroke-linecap:round;stroke-linejoin:round;stroke-miterlimit:10"/><path d="m221.2 109.8c6.8 7.2 7.7 16.2 6.2 26" style="fill:none;stroke:#51347a;stroke-width:3.1611;stroke-linecap:round;stroke-linejoin:round;stroke-miterlimit:10"/><path d="m274.3 158.3c0 13.3-8.6 31.6-19 41.6-4.6 4.4-9.6 7.2-14.3 7.2-3 0-6-.5-8.6-1.3-3.5-1.1-7.3-1.1-10.8 0-2.6.8-5.6 1.3-8.6 1.3-5 0-10.2-3.1-15-7.9-10.1-10.1-18.4-28-18.4-40.9 0-19.1 11.4-30.7 22.2-33.5 5.2-1.3 11.1-.5 16 .8 5 1.3 10.2 1.5 15.2.7 1-.2 2-.4 3-.7 4.8-1.3 10.8-2.1 16-.8 10.8 2.8 22.3 14.4 22.3 33.5z" fill="none" stroke="#51347a" stroke-miterlimit="10" stroke-width="3.1611"/><path d="m261.3 149.1c1.1 3 1.5 6.5 1.2 10.3-.3 3.2-1 6.5-2.2 10" style="opacity:.9;fill:none;stroke:#fff;stroke-width:3.1611;stroke-linecap:round;stroke-linejoin:round;stroke-miterlimit:10"/><path d="m361.9 201.9c-.3-.3-.7-.7-1-1-.6-.5-1.1-1.1-1.6-1.6-.5-.6-.9-1.1-1.3-1.7-2.4-3.5-3.5-7.5-3.4-11.5.2-5.3 2.6-10.6 7-14.4.3-.2.5-.5.8-.7 0 0 .1-.1.1-.1 2.9-3.1 5.1-8.9 6.1-18.2-1.9 4.5-5.1 9-10.7 11.8-8.6 4.3-12 7.6-14.4 11.8-1.8 3.1-2.2 6.7-2.2 9.5 0 10 7.2 14.7 20.7 16.3 0-.1 0-.2-.1-.2z" style="fill:#fff4de;stroke:#51347a;stroke-width:3.1611;stroke-linecap:round;stroke-linejoin:round;stroke-miterlimit:10"/><path d="m389.4 171.5c.2.3.5.5.7.7.6.5 1.1 1 1.6 1.5 2 2.1 3.4 4.4 4.3 7 .7 1.9 1.1 3.8 1.1 5.8v2c-.2 2.6-.9 5.2-2.2 7.6-.1.2-.3.5-.4.7 8-3.7 14.5-10.1 18.2-15.8-.3-1.6-.9-3.3-1.7-4.8-2.4-4.2-5.8-7.5-14.4-11.8-9.7-4.9-13.8-20.9-13.8-20.9.3 14.8 2.9 23.9 6.7 28-.2-.1-.2-.1-.1 0" style="fill:#fff4de;stroke:#51347a;stroke-width:3.1611;stroke-linecap:round;stroke-linejoin:round;stroke-miterlimit:10"/><path d="m377.1 199.5c6.1.9 12-.3 17.2-2.7 4.8-8 3.1-18.1-4.3-24.6-4.3-3.7-7.4-13.3-7.6-29.9v-1.1-5.8c0-.5-.3-.9-.8-1.1l-10.9-3.3c-.7-.2-1.5.3-1.5 1.1v6.4 2.5c0 17.5-3.2 26.8-7.6 30.6-8.8 7.7-9.6 21-.8 29.3.3.3.6.7 1 1 4 3.4 8.8 5.6 14 5.6 3.4 0 6.5-.9 9.4-2.4-5.2-2.4-8.3-5.6-8.1-5.6" fill="#e5dfa8" stroke="#51347a" stroke-miterlimit="10" stroke-width="3.1611"/><path d="m415.7 173c0 8.1-17.8 29.6-38.5 26.5-.5-.1 14.5 14.9 31.8 4 16.6-10.4 6.7-30.5 6.7-30.5" style="fill:#fff4de;stroke:#51347a;stroke-width:3.1611;stroke-linecap:round;stroke-linejoin:round;stroke-miterlimit:10"/><path d="m362.3 180.3c-.8 1.9-1.1 4.2-.9 6.6.1 2 .5 4.2 1.2 6.4" style="opacity:.9;fill:none;stroke:#fff;stroke-width:3.1611;stroke-linecap:round;stroke-linejoin:round;stroke-miterlimit:10"/><path d="m375.5 133.8v13" style="fill:none;stroke:#51347a;stroke-width:3.1611;stroke-linecap:round;stroke-linejoin:round;stroke-miterlimit:10"/><path d="m293.4 200.2c-.5 1.2-.7 2.6-.6 4 .1 1.2.3 2.6.7 3.9" style="opacity:.9;fill:none;stroke:#fff;stroke-width:3.1611;stroke-linecap:round;stroke-linejoin:round;stroke-miterlimit:10"/><path d="m292.1 173.1c3.4-1.9 7.3-3 11.5-3 12.9 0 23.4 10.5 23.4 23.4s-10.5 23.4-23.4 23.4-23.4-10.5-23.4-23.4c0-5.1 1.6-9.7 4.3-13.6.8-1.1 1.7-2.2 2.7-3.1.8-.8 1.7-1.5 2.6-2.2.7-.5 1.4-1 2.3-1.5" fill="#f6c358" stroke="#51347a" stroke-miterlimit="10" stroke-width="3.1611"/><circle cx="303.5" cy="193.5" fill="#fcd462" r="20"/><path d="m303.6 211.1c-1.2-.1-2.3-.2-3.4-.4l.3-1.3c1 .2 2.1.3 3.1.3l.2 1.2v.2zm3.4-.4-.3-1.3c1-.2 2.1-.5 3-.9l.5 1.2c-1 .4-2.1.8-3.2 1zm-10.1-1c-1.1-.4-2.1-1-3-1.6l.7-1.1c.9.6 1.8 1.1 2.8 1.5zm16.4-1.6-.7-1.1c.9-.6 1.7-1.3 2.4-2l1 1c-.9.7-1.8 1.4-2.7 2.1zm-22.1-2.2c-.8-.8-1.5-1.7-2.2-2.6l1.1-.8c.6.9 1.3 1.7 2 2.4zm26.9-2.6-1.1-.7c.6-.9 1.1-1.8 1.5-2.8l1.2.5c-.4 1-1 2-1.6 3zm-30.7-3c-.4-1.1-.8-2.2-1-3.3l1.3-.3c.2 1 .5 2.1.9 3zm33.2-3.3-1.4-.3c.2-1 .3-2.1.3-3.1v-.1h1.4v.1c.1 1.1 0 2.2-.3 3.4zm-34.5-3.4c0-1.2.1-2.3.3-3.4l1.3.3c-.2 1-.3 2.1-.3 3.1zm2.5-6.2-1.2-.5c.4-1.1 1-2.1 1.6-3l1.1.7c-.6.9-1.1 1.8-1.5 2.8zm3.5-5.2-1-.9c.8-.8 1.7-1.5 2.6-2.2l.8 1.1c-.8.5-1.7 1.2-2.4 2zm20.4-2.1c-.9-.6-1.8-1.1-2.8-1.5l.5-1.2c1.1.4 2.1 1 3 1.6zm-15.2-1.4-.5-1.2c1.1-.4 2.2-.8 3.3-1l.3 1.3c-1.1.1-2.1.4-3.1.9zm9.3-1c-1-.2-2.1-.3-3.1-.3v-.9-.4c1.1 0 2.3.1 3.4.3z" fill="#ffa70b"/><path d="m311.5 191.1c-.1-1.2-.9-1.6-1.9-1.6-.8 0-1.6.3-2.4.8v3.1c0 2.3.4 3.2 1.2 3.8.4.3.9.4 1.5.4.7 0 1.2-.2 1.5-.5-.1-.8-.5-1.8-1.1-2.9.3-.6.7-1.2 1.1-1.7h.1c.6 1.4 1 2.6 1 3.4s-.2 1.7-.7 2.5c-.6 1-1.4 1.5-2.5 1.5-1.8 0-3.2-1.5-3.2-4.7 0-1.3-.1-2.7-.1-4.1l-.1-.1c-.7.6-1.4 1.3-1.9 1.9 0 1 .1 2.1.1 3.2 0 1.5-.2 3-.6 4.4-1.2 1.8-3.1 3-5 3-2.6 0-4.1-2-4.1-4.8 0-1.4.4-2.9 1.3-4.5l.5.3c-.5 1.2-.7 2.2-.7 3.1 0 1.9 1.2 3.5 3.1 3.5 1.4 0 2.4-.5 3.3-1.3.8-.6 1.2-1.2 1.3-1.6 0-1.4-.1-2.7-.2-4h-.1c-.2.2-.3.4-.5.6-1.4 1.6-2.2 2.3-3.4 2.3-1.3 0-2.4-1.3-2.4-3.2s.8-3.9 2.2-5.9l.5.3c-1.1 1.7-1.6 3-1.6 4.1 0 .7.1 1.2.3 1.5.3.6.9.7 1.3.7 1 0 2.2-1 3.6-2.6-.2-2.3-.3-4.3-.4-5.8-.2-.7-.4-1.4-.4-1.9 0-.6.7-1.9 1.3-2.6l.2.1v.7c0 .9.5 1.9 1.4 3.1l-1.2 1.1.2 4.2h.1c.7-.7 1.3-1.3 2-1.9-.1-1.6-.2-3.6-.5-6.2.3-.6.7-1.1 1.1-1.6h.2c.3 1.9.4 4.2.4 6.9h.1c1-.7 2-1.1 2.9-1.1 1.1 0 2 .6 2 1.8 0 .7-.2 1.4-.4 2.2zm-3.9 10.1c.7.4 1.4.9 2 1.5-.3.6-.7 1.1-1.2 1.6-.7-.6-1.4-1.1-2-1.5zm3.1-.3c.7.5 1.4 1 1.9 1.6-.3.6-.7 1.1-1.1 1.6-.6-.6-1.3-1.1-2-1.6z" fill="#99582b"/><path d="m319.4 190.3c-.2-1-.5-2-.9-3l1.2-.5c.4 1.1.8 2.2 1 3.3z" fill="#ffa70b"/><path d="m316.9 184.5c-.6-.9-1.3-1.7-2-2.4l.9-1c.8.8 1.5 1.7 2.2 2.6z" fill="#ffa70b"/><path d="m291 193.5c0-2.7.9-5.2 2.3-7.3.4-.6.9-1.2 1.4-1.7.4-.4.9-.8 1.4-1.2.4-.3.8-.6 1.3-.8" style="opacity:.9;fill:none;stroke:#fff;stroke-width:3.1611;stroke-linecap:round;stroke-linejoin:round;stroke-miterlimit:10"/><circle cx="70.1" cy="126.2" fill="none" r="5.1" stroke="#f9d41c" stroke-linecap="round" stroke-linejoin="round" stroke-width="3"/><path d="m466.8 144.1h11.8" fill="none" stroke="#1de9b6" stroke-linecap="round" stroke-linejoin="round" stroke-width="3"/><path d="m472.8 150.1v-11.8" fill="none" stroke="#1de9b6" stroke-linecap="round" stroke-linejoin="round" stroke-width="3"/><path d="m191.3 26.3h11.8" fill="none" stroke="#b3b3b3" stroke-linecap="round" stroke-linejoin="round" stroke-width="3"/><path d="m197.2 32.2v-11.8" fill="none" stroke="#b3b3b3" stroke-linecap="round" stroke-linejoin="round" stroke-width="3"/><path d="m79.6 134.9h8.9v8.9h-8.9z" fill="none" stroke="#b3b3b3" stroke-linecap="round" stroke-linejoin="round" stroke-width="3"/><path d="m204.6 38h6.9c.6 0 1 .4 1 1v6.9c0 .6-.4 1-1 1h-6.9c-.6 0-1-.4-1-1v-6.9c0-.6.4-1 1-1z" fill="none" stroke="#b968e0" stroke-linecap="round" stroke-linejoin="round" stroke-width="3"/><circle cx="457.3" cy="139.9" fill="none" r="5.1" stroke="#b3b3b3" stroke-linecap="round" stroke-linejoin="round" stroke-width="3"/><path d="m147.9 79h-18" fill="none" stroke="#51347a" stroke-linecap="round" stroke-linejoin="round" stroke-width="3"/><path d="m145.5 86.5h-6.6" fill="none" stroke="#51347a" stroke-linecap="round" stroke-linejoin="round" stroke-width="3"/><path d="m123.4 79h-17.9" fill="none" stroke="#51347a" stroke-linecap="round" stroke-linejoin="round" stroke-width="3"/><path d="m408.6 95.5h24.2" fill="none" stroke="#51347a" stroke-linecap="round" stroke-linejoin="round" stroke-width="3"/><path d="m411.7 88h8.8" fill="none" stroke="#51347a" stroke-linecap="round" stroke-linejoin="round" stroke-width="3"/></svg>